<?xml version="1.0" encoding="UTF-8"?>
<svg id="Layer_1" data-name="Layer 1" xmlns="http://www.w3.org/2000/svg" version="1.1" viewBox="0 0 480.1 136.4">
  <g>
    <path d="M109.9,126V29.2h75.4v19.5h-50.2v19.7h39.9v18.3h-39.9v19.8h52.1v19.5h-77.3Z" fill="#2e3e59" stroke-width="0"/>
    <path d="M272.7,29.2v59.6c0,12.2-3.5,21.7-10.6,28.5-7,6.8-17,10.2-29.9,10.2s-17.1-1.7-22.9-5.1-9.7-8.1-11.9-14.1c-2.2-6-2.6-12.9-1.3-20.6l24.7-4.4c-1.2,8.9-.8,15.2,1.2,18.9,2,3.7,5.7,5.5,11.1,5.5s9-1.8,11.2-5.3,3.2-9,3.2-16.3V29.2h25.2Z" fill="#2e3e59" stroke-width="0"/>
    <path d="M328.2,27.7c9,0,17,1.4,23.9,4.2,6.9,2.8,12.9,6.9,18,12.3l-12.2,16.3c-4.2-4.4-8.7-7.7-13.6-9.9-4.8-2.2-10.3-3.3-16.5-3.3s-6.6.4-8.8,1.2c-2.3.8-3.9,1.9-4.8,3.2-1,1.4-1.5,2.9-1.5,4.7s1,3.8,2.9,5.2c1.9,1.4,5,2.6,9.3,3.6l16.3,3.7c9.7,2.3,16.8,5.5,21.3,9.8,4.5,4.3,6.8,10,6.8,17.2s-1.8,12.6-5.3,17.4c-3.5,4.7-8.4,8.3-14.5,10.7-6.2,2.4-13.2,3.6-21.1,3.6s-12.6-.7-18.5-2.1c-5.9-1.4-11.2-3.4-15.9-6.1-4.7-2.6-8.7-5.7-11.9-9.1l12.2-16.9c2.4,2.8,5.5,5.4,9,7.6,3.6,2.2,7.5,3.9,11.7,5.2,4.3,1.3,8.6,1.9,13,1.9s6.3-.3,8.6-1c2.3-.7,4-1.7,5.1-3.1,1.1-1.4,1.6-3,1.6-4.8s-.7-3.8-2.2-5.2c-1.5-1.4-4.3-2.6-8.4-3.6l-17.9-4c-5.5-1.3-10.3-3-14.6-5.1-4.3-2.1-7.6-4.9-10.1-8.5-2.4-3.6-3.7-8-3.7-13.4s1.7-11.5,5-16.2c3.3-4.7,8.1-8.5,14.4-11.2,6.3-2.7,13.7-4.1,22.5-4.1Z" fill="#2e3e59" stroke-width="0"/>
  </g>
  <g>
    <path d="M169.2,20V4.1s13.2,0,13.2,0v4.1h-7.6v2h6.1v3.8s-6.1,0-6.1,0v1.9h7.9v4.1h-13.5Z" fill="#2e3e59" stroke-width="0"/>
    <path d="M199.9,3.9c1.5,0,2.9.2,4.1.6,1.2.4,2.3.9,3.2,1.7l-2.3,3.6c-.8-.5-1.5-1-2.4-1.3-.8-.3-1.7-.5-2.7-.5s-.8,0-1,0-.4.2-.5.3c-.1.1-.2.2-.2.4s.1.3.4.4c.3,0,.7.2,1.1.3l2.2.5c1.6.4,2.8.9,3.7,1.6.8.7,1.2,1.7,1.2,3,0,1.3-.3,2.3-.9,3.2s-1.5,1.4-2.5,1.8c-1.1.4-2.3.6-3.6.6s-2,0-3-.3c-1-.2-1.9-.5-2.8-.8s-1.6-.8-2.2-1.3l2.2-3.7c.5.4,1,.7,1.7,1,.7.3,1.3.5,2,.7.7.2,1.4.3,2,.3s.7,0,.9,0c.2,0,.4-.1.5-.3s.1-.2.1-.4c0-.2,0-.4-.3-.5-.2-.1-.5-.2-1-.3l-2.4-.5c-.9-.2-1.7-.4-2.4-.8-.8-.3-1.4-.8-1.9-1.4-.5-.6-.7-1.5-.7-2.5s.3-2,.9-2.9c.6-.8,1.4-1.5,2.6-1.9s2.5-.7,4.1-.7Z" fill="#2e3e59" stroke-width="0"/>
    <path d="M217.2,20V4.1s9.1,0,9.1,0c2,0,3.5.4,4.5,1.1s1.5,1.8,1.5,3.2-.3,1.7-.9,2.4-1.5,1.1-2.7,1.3h0c1.4.2,2.4.6,3,1.3.6.7,1,1.5,1,2.6s-.5,2.4-1.4,3.1c-.9.7-2.4,1-4.3,1h-9.7ZM222.6,10.3h2.5c1,0,1.4-.4,1.4-1.2s-.5-1.2-1.4-1.2h-2.5v2.3ZM222.6,16.4h2.9c.5,0,.9,0,1.1-.3.2-.2.4-.5.4-.9s-.1-.7-.4-.8c-.2-.2-.6-.3-1.1-.3h-2.9v2.3Z" fill="#2e3e59" stroke-width="0"/>
    <path d="M257.9,4.1v9.1c0,2.4-.6,4.1-1.9,5.3-1.3,1.2-3.2,1.8-5.8,1.8s-4.5-.6-5.8-1.8c-1.3-1.2-1.9-2.9-1.9-5.3V4.1h5.6v9.5c0,.8.2,1.4.5,1.8.4.4.9.6,1.5.6s1.2-.2,1.5-.6c.4-.4.5-1,.5-1.8V4.1h5.6Z" fill="#2e3e59" stroke-width="0"/>
    <path d="M274.2,4.1v15.9h-5.6V4.1h5.6Z" fill="#2e3e59" stroke-width="0"/>
    <path d="M290.9,15.9h7.2v4.1h-12.8V4.1h5.6v11.8Z" fill="#2e3e59" stroke-width="0"/>
    <path d="M316.3,4.1c2.5,0,4.4.7,5.6,2.1,1.3,1.4,1.9,3.3,1.9,5.9s-.6,4.5-1.9,5.9c-1.3,1.4-3.1,2.1-5.6,2.1h-7.8V4.1h7.8ZM315.5,16c1,0,1.7-.3,2.1-1,.3-.6.5-1.6.5-3s-.2-2.4-.5-3c-.3-.6-1-1-2.1-1h-1.4v7.9h1.4Z" fill="#2e3e59" stroke-width="0"/>
  </g>
  <path d="M89.7,122.4L5.7,83.4v-19L89.7,25.5v18.5l-69.1,29.7,69.1,30v18.7Z" fill="#001ef4" stroke-width="0"/>
  <path d="M389.5,25.5l84,38.9v19l-84,38.9v-18.5l69.1-29.7-69.1-30v-18.7Z" fill="#001ef4" stroke-width="0"/>
</svg>